# xmcd
#
# Track frame offsets: 
#        150
#        12200
#        22975
#        33887
#        45287
#        64025
#        76812
#        90475
#        101275
#        112887
#        127412
#        138862
#        151200
#        162662
#        175775
#        192412
#        206687
#        220925
#
# Disc length: 3127 seconds
#
# Revision: 0
# Processed by: cddbd v1.5.2PL0 Copyright (c) Steve Scherf et al.
# Submitted via: ExactAudioCopyFreeDBPlugin 1.0
#
DISCID=e10c3512
DTITLE=Various Artist - Old Style Love Songs (I)
DYEAR=1900
DGENRE=Other
TTITLE0=The End Of The World
TTITLE1=He'll Have To Go
TTITLE2=Elvis Presley  - No More
TTITLE3=Paul Anka - My Home Town
TTITLE4=New Birth - Wild Flower
TTITLE5=Detroit City
TTITLE6=Black Is Black
TTITLE7=Wooly Bully
TTITLE8=The Battle Of New Orleans
TTITLE9=Baby Don't Get Hooked On Me
TTITLE10=The Twelfth Of Never
TTITLE11=A Guy Is Guy
TTITLE12=Michael Row The Boat A Shore
TTITLE13=I Left My Heart In San Francisco
TTITLE14=Alone Again
TTITLE15=Down Town
TTITLE16=Secret Agent Man
TTITLE17=9 999 999 Tears
EXTD=
EXTT0=
EXTT1=
EXTT2=
EXTT3=
EXTT4=
EXTT5=
EXTT6=
EXTT7=
EXTT8=
EXTT9=
EXTT10=
EXTT11=
EXTT12=
EXTT13=
EXTT14=
EXTT15=
EXTT16=
EXTT17=
PLAYORDER=
